<?xml version="1.0" encoding="UTF-8" standalone="no"?>
<svg
   width="108mm"
   height="175mm"
   viewBox="0 0 108 175"
   version="1.1"
   preserveAspectRatio="xMidYMid meet"
   id="svg570"
   sodipodi:docname="1.svg"
   inkscape:version="1.2.2 (b0a8486541, 2022-12-01)"
   xmlns:inkscape="http://www.inkscape.org/namespaces/inkscape"
   xmlns:sodipodi="http://sodipodi.sourceforge.net/DTD/sodipodi-0.dtd"
   xmlns="http://www.w3.org/2000/svg"
   xmlns:svg="http://www.w3.org/2000/svg">
  <defs
     id="defs574" />
  <sodipodi:namedview
     id="namedview572"
     pagecolor="#ffffff"
     bordercolor="#000000"
     borderopacity="0.25"
     inkscape:showpageshadow="2"
     inkscape:pageopacity="0.0"
     inkscape:pagecheckerboard="0"
     inkscape:deskcolor="#d1d1d1"
     inkscape:document-units="mm"
     showgrid="false"
     inkscape:zoom="1.2654643"
     inkscape:cx="129.20159"
     inkscape:cy="331.10377"
     inkscape:window-width="1920"
     inkscape:window-height="1017"
     inkscape:window-x="-8"
     inkscape:window-y="-8"
     inkscape:window-maximized="1"
     inkscape:current-layer="svg570" />
  <path
     d="m 0,89 v 11.3 h 3 v 12.68 H 0 v 12.68 h 3 v 12.68 H 0 v 12.68 H 3 V 163.7 H 0 V 175 h 10.66 v -3 h 12.68 v 3 H 34 v -11.3 h -3 v -12.68 h 3 v -12.68 h -3 v -12.68 h 3 V 112.98 H 31 V 100.3 h 3 V 89 H 23.34 v 3 H 10.66 v -3 z"
     id="front_outsideCutPath"
     stroke="#FF0000"
     stroke-width="0.1"
     style="font-size:12px;fill:none;fill-rule:evenodd;stroke:#ff0000;stroke-width:0.1;stroke-linecap:round"
     vector-effect="non-scaling-stroke" />
  <path
     d="m 40,89 v 11.3 h -3 v 12.68 h 3 v 12.68 h -3 v 12.68 h 3 v 12.68 h -3 v 12.68 h 3 V 175 h 7.66 v -3 h 12.68 v 3 H 68 v -11.3 h 3 v -12.68 h -3 v -12.68 h 3 v -12.68 h -3 v -12.68 h 3 V 100.3 H 68 V 89 h -7.66 v 3 H 47.66 v -3 z"
     id="left_outsideCutPath"
     stroke="#FF0000"
     stroke-width="0.1"
     style="font-size:12px;fill:none;fill-rule:evenodd;stroke:#ff0000;stroke-width:0.1;stroke-linecap:round"
     vector-effect="non-scaling-stroke" />
  <path
     d="m 77,144 v 7.66 h -3 v 12.68 h 3 V 172 h 7.66 v 3 h 12.68 v -3 H 105 v -7.66 h 3 v -12.68 h -3 V 144 h -7.66 v -3 H 84.66 v 3 z"
     id="top_outsideCutPath"
     stroke="#FF0000"
     stroke-width="0.1"
     style="font-size:12px;fill:none;fill-rule:evenodd;stroke:#ff0000;stroke-width:0.1;stroke-linecap:round"
     vector-effect="non-scaling-stroke" />
  <path
     d="M 0,0 V 11.3 H 3 V 23.98 H 0 V 36.66 H 3 V 49.34 H 0 V 62.02 H 3 V 74.7 H 0 V 86 h 10.66 v -3 h 12.68 v 3 H 34 V 74.7 H 31 V 62.02 h 3 V 49.34 H 31 V 36.66 h 3 V 23.98 H 31 V 11.3 h 3 V 0 H 23.34 V 3 H 10.66 V 0 Z"
     id="back_outsideCutPath"
     stroke="#FF0000"
     stroke-width="0.1"
     style="font-size:12px;fill:none;fill-rule:evenodd;stroke:#ff0000;stroke-width:0.1;stroke-linecap:round"
     vector-effect="non-scaling-stroke" />
  <path
     d="m 40,0 v 11.3 h -3 v 12.68 h 3 v 12.68 h -3 v 12.68 h 3 V 62.02 H 37 V 74.7 h 3 V 86 h 7.66 v -3 h 12.68 v 3 H 68 V 74.7 h 3 V 62.02 H 68 V 49.34 h 3 V 36.66 H 68 V 23.98 h 3 V 11.3 H 68 V 0 H 60.34 V 3 H 47.66 V 0 Z"
     id="right_outsideCutPath"
     stroke="#FF0000"
     stroke-width="0.1"
     style="font-size:12px;fill:none;fill-rule:evenodd;stroke:#ff0000;stroke-width:0.1;stroke-linecap:round"
     vector-effect="non-scaling-stroke" />
  <path
     d="m 77,107 v 7.66 h -3 v 12.68 h 3 V 135 h 7.66 v 3 h 12.68 v -3 H 105 v -7.66 h 3 v -12.68 h -3 V 107 h -7.66 v -3 H 84.66 v 3 z"
     id="bottom_outsideCutPath"
     stroke="#FF0000"
     stroke-width="0.1"
     style="font-size:12px;fill:none;fill-rule:evenodd;stroke:#ff0000;stroke-width:0.1;stroke-linecap:round"
     vector-effect="non-scaling-stroke" />
  <circle
     style="fill:none;stroke:#ff0000;stroke-width:0.100935;stroke-dasharray:none"
     id="path392"
     cx="91"
     cy="121"
     r="6.1995325" />
</svg>
